<svg width="109" height="79" viewBox="0 0 109 79" fill="none" xmlns="http://www.w3.org/2000/svg">
<path d="M54.3721 2.01201C66.6005 -1.20076 79.1715 1.93297 85.3482 13.8497C87.0563 17.1452 89.1106 18.9421 93.0014 20.3123C104.706 24.434 109.543 31.4855 107.901 46.174C106.875 55.3474 97.1988 63.1782 87.003 63.0258C77.8559 62.889 68.7055 62.9753 59.5566 62.9496C59.2468 62.9487 58.9375 62.7999 57.9997 62.558C57.9997 57.3004 57.922 51.8768 58.0237 46.4567C58.1089 41.9188 56.0565 39.9023 51.5009 39.9683C42.0726 40.1049 43.0513 41.0177 43.0013 31.4261C42.9926 29.7626 42.9338 28.0958 43.0132 26.4361C43.1897 22.7515 41.8212 20.16 37.7876 19.4329C40.0716 10.3736 46.0919 5.35234 54.3721 2.01201Z" fill="#0087FF"/>
<path d="M55.997 47.3346C55.9982 51.1118 55.9275 54.4288 56.0152 57.7416C56.1162 61.557 54.2648 63.1233 50.559 63.0199C46.9152 62.9182 43.2536 62.8074 39.6231 63.0497C35.6486 63.3151 33.9805 61.0583 34.1171 57.7638C34.3241 52.7717 35.2067 47.8076 35.8023 42.8316C41.6894 42.5831 47.5825 42.1299 53.457 42.3048C54.3475 42.3313 55.1512 45.2771 55.997 47.3346Z" fill="#3DB800"/>
<path d="M22.0006 34.6519C21.9998 21.9967 21.9998 21.9967 34.0399 22.0001C40.9963 22.0021 40.9533 22.0024 41.0094 28.6242C41.1132 40.8683 41.6712 40.0862 29.2511 40.0133C25.6914 39.9925 21.9116 40.456 22.0006 34.6519Z" fill="#F6A200"/>
<path d="M11.222 48.9984C7.36111 49.0497 5.43931 47.6918 5.99379 43.9683C6.04217 43.6434 6.00088 43.305 5.99975 42.973C5.96409 32.4104 7.33301 31.2795 18.0881 33.024C18.7249 33.1273 19.8639 33.3167 19.8866 33.5514C20.2928 37.7467 20.9722 41.9932 20.5891 46.1358C20.4863 47.2483 17.1172 48.2127 15.1344 48.9339C14.1078 49.3072 12.8336 48.9995 11.222 48.9984Z" fill="#EE2424"/>
<path d="M23.1981 53.9554C23.1442 55.1093 23.0522 56.2628 23.0426 57.4171C22.9798 64.9725 21.0053 66.5433 13.5438 64.9038C9.82056 64.0857 9.92977 61.195 10.0353 58.3148C10.1404 55.4465 10.3001 52.4051 13.9796 52.0524C16.3613 51.8241 18.8189 52.389 21.8837 52.833C22.7492 53.3636 22.9736 53.6595 23.1981 53.9554Z" fill="#673AB7"/>
<path d="M24.583 52.0003C23.9376 51.7049 23.7132 51.409 23.2436 50.9752C22.9985 48.0464 22.9985 45.2556 22.9985 41.9999C24.5216 41.9999 25.6404 41.9798 26.7583 42.0037C29.7946 42.0687 33.2239 41.0189 33.1143 46.3482C33.0141 51.2176 30.6366 52.3715 26.5024 52.0056C26.0066 51.9617 25.5036 51.9997 24.583 52.0003Z" fill="#0087FF"/>
<path d="M9.21432 50.8521C9.702 53.5646 9.87832 55.9667 10.0782 58.6899C6.97581 58.6899 4.40856 58.6899 1.82681 58.6899C-0.477581 50.7676 0.938355 49.1273 9.21432 50.8521Z" fill="#6D6E70"/>
<path d="M20.1795 30.1956C16.8002 30.6271 12.6722 33.2828 12.0359 27.4108C11.7087 24.3911 12.8255 22.1954 16.2265 22.0378C19.6426 21.8796 21.5211 23.3488 20.9896 27.0251C20.8508 27.9848 20.6537 28.9362 20.1795 30.1956Z" fill="#3DB800"/>
<path d="M32.1342 58.3012C30.0817 58.7519 28.3294 58.8919 26.2847 59.0552C26.2847 56.9722 26.2847 55.2587 26.2847 53.5476C32.7588 52.4989 33.1977 52.8215 32.1342 58.3012Z" fill="#E91E63"/>
<path d="M24.8217 76V66.5455H28.6072C29.3028 66.5455 29.8829 66.6486 30.3477 66.8548C30.8124 67.061 31.1617 67.3472 31.3956 67.7134C31.6295 68.0766 31.7464 68.4951 31.7464 68.9691C31.7464 69.3384 31.6726 69.6631 31.5249 69.9432C31.3771 70.2202 31.174 70.4479 30.9155 70.6264C30.66 70.8018 30.3677 70.9265 30.0384 71.0004V71.0927C30.3984 71.1081 30.7354 71.2096 31.0494 71.3974C31.3664 71.5851 31.6233 71.8482 31.8203 72.1868C32.0173 72.5223 32.1158 72.9223 32.1158 73.3871C32.1158 73.8887 31.9911 74.3365 31.7418 74.7305C31.4956 75.1213 31.1309 75.4306 30.6477 75.6584C30.1645 75.8861 29.569 76 28.8612 76H24.8217ZM26.8207 74.3658H28.4503C29.0073 74.3658 29.4136 74.2596 29.669 74.0472C29.9245 73.8318 30.0522 73.5456 30.0522 73.1886C30.0522 72.927 29.9891 72.6961 29.8629 72.4961C29.7367 72.296 29.5567 72.1391 29.3228 72.0252C29.092 71.9113 28.8165 71.8544 28.4964 71.8544H26.8207V74.3658ZM26.8207 70.5018H28.3026C28.5765 70.5018 28.8196 70.4541 29.032 70.3587C29.2474 70.2602 29.4167 70.1217 29.5398 69.9432C29.666 69.7647 29.729 69.5508 29.729 69.3015C29.729 68.9599 29.6075 68.6844 29.3643 68.4751C29.1243 68.2659 28.7827 68.1612 28.3395 68.1612H26.8207V70.5018ZM33.4165 76V66.5455H39.6764V68.1935H35.4154V70.4464H39.2609V72.0945H35.4154V76H33.4165ZM43.6697 68.1935V66.5455H51.4346V68.1935H48.54V76H46.5642V68.1935H43.6697ZM54.8796 76.1385C54.1502 76.1385 53.5224 75.9908 52.9961 75.6953C52.4729 75.3968 52.0697 74.9751 51.7866 74.4304C51.5034 73.8826 51.3619 73.2347 51.3619 72.4869C51.3619 71.7575 51.5034 71.1173 51.7866 70.5664C52.0697 70.0155 52.4683 69.5862 52.9822 69.2784C53.4993 68.9706 54.1056 68.8168 54.8011 68.8168C55.2689 68.8168 55.7044 68.8922 56.1076 69.043C56.5138 69.1907 56.8678 69.4138 57.1694 69.7124C57.4741 70.0109 57.7111 70.3864 57.8803 70.8388C58.0496 71.2881 58.1342 71.8144 58.1342 72.4176V72.9577H52.1467V71.739H56.283C56.283 71.4558 56.2215 71.205 56.0984 70.9865C55.9753 70.768 55.8045 70.5972 55.5859 70.4741C55.3705 70.3479 55.1197 70.2848 54.8335 70.2848C54.5349 70.2848 54.2702 70.354 54.0394 70.4925C53.8117 70.628 53.6332 70.8111 53.5039 71.0419C53.3746 71.2696 53.3085 71.5236 53.3054 71.8036V72.9624C53.3054 73.3132 53.37 73.6164 53.4993 73.8718C53.6316 74.1272 53.8178 74.3242 54.0579 74.4627C54.2979 74.6012 54.5826 74.6705 54.9119 74.6705C55.1304 74.6705 55.3305 74.6397 55.5121 74.5781C55.6937 74.5166 55.8491 74.4242 55.9783 74.3011C56.1076 74.178 56.2061 74.0272 56.2738 73.8487L58.0927 73.9688C58.0004 74.4058 57.8111 74.7874 57.5249 75.1136C57.2417 75.4368 56.8755 75.6892 56.4261 75.8707C55.9799 76.0492 55.4644 76.1385 54.8796 76.1385ZM62.6214 76.1385C61.8951 76.1385 61.2704 75.9846 60.7472 75.6768C60.227 75.366 59.8269 74.9351 59.5469 74.3842C59.2699 73.8333 59.1314 73.1993 59.1314 72.4822C59.1314 71.7559 59.2714 71.1188 59.5515 70.571C59.8346 70.0201 60.2363 69.5908 60.7564 69.283C61.2765 68.9722 61.8951 68.8168 62.6122 68.8168C63.2308 68.8168 63.7725 68.9291 64.2372 69.1538C64.7019 69.3784 65.0697 69.6939 65.3406 70.1001C65.6114 70.5064 65.7607 70.9834 65.7884 71.5312H63.9325C63.8802 71.1773 63.7417 70.8926 63.517 70.6772C63.2955 70.4587 63.0046 70.3494 62.6445 70.3494C62.3398 70.3494 62.0736 70.4325 61.8459 70.5987C61.6212 70.7618 61.4458 71.0004 61.3196 71.3143C61.1934 71.6282 61.1303 72.0083 61.1303 72.4545C61.1303 72.907 61.1919 73.2917 61.315 73.6087C61.4412 73.9257 61.6181 74.1673 61.8459 74.3335C62.0736 74.4996 62.3398 74.5827 62.6445 74.5827C62.8692 74.5827 63.0708 74.5366 63.2493 74.4442C63.4309 74.3519 63.5801 74.218 63.6971 74.0426C63.8171 73.8641 63.8956 73.6502 63.9325 73.4009H65.7884C65.7576 73.9426 65.6098 74.4196 65.3452 74.832C65.0836 75.2414 64.7219 75.5614 64.2603 75.7923C63.7987 76.0231 63.2524 76.1385 62.6214 76.1385ZM69.0141 71.9006V76H67.0475V66.5455H68.9587V70.1602H69.0418C69.2019 69.7416 69.4604 69.4138 69.8174 69.1768C70.1744 68.9368 70.6222 68.8168 71.1608 68.8168C71.6532 68.8168 72.0825 68.9245 72.4488 69.1399C72.8181 69.3523 73.1043 69.6585 73.3074 70.0586C73.5136 70.4556 73.6152 70.9311 73.6121 71.4851V76H71.6455V71.8359C71.6486 71.3989 71.5378 71.0588 71.3131 70.8157C71.0915 70.5726 70.7807 70.451 70.3806 70.451C70.1128 70.451 69.8759 70.5079 69.6697 70.6218C69.4665 70.7357 69.3065 70.9019 69.1895 71.1204C69.0757 71.3358 69.0172 71.5959 69.0141 71.9006Z" fill="black"/>
</svg>
