<svg width="120" height="120" viewBox="0 0 120 120" fill="none" xmlns="http://www.w3.org/2000/svg">
<circle cx="60" cy="60" r="60" fill="#0F0839"/>
<path d="M23.5191 67.9213C23.1657 67.5661 23 67.1077 23 66.5691C23 66.0305 23.1767 65.5835 23.5191 65.2284C23.8725 64.8731 24.3032 64.7012 24.8222 64.7012C25.3413 64.7012 25.772 64.8731 26.1144 65.2284C26.4567 65.5835 26.6224 66.0305 26.6224 66.5691C26.6224 67.1077 26.4567 67.5661 26.1144 67.9213C25.772 68.2766 25.3413 68.4599 24.8222 68.4599C24.3032 68.4714 23.8614 68.288 23.5191 67.9213ZM26.2359 84.1483H23.3644V70.282H26.2359V84.1483Z" fill="white"/>
<path d="M34.6843 81.4546C34.9493 81.4093 35.1812 81.3634 35.4021 81.3175C35.623 81.2716 35.8107 81.237 35.9654 81.1911V83.9757C35.2144 84.1939 34.2646 84.2971 33.116 84.2971C32.0669 84.2971 31.2828 84.1021 30.7526 83.7009C30.2225 83.2997 29.8691 82.7959 29.7035 82.1652C29.5378 81.5464 29.4605 80.7672 29.4605 79.8503V72.8372H27.3843V70.2703H29.4716V66.5918H32.3429V70.2703H35.6561V72.8372H32.3429V79.7704C32.3429 80.3892 32.4313 80.8244 32.6191 81.0999C32.8068 81.3747 33.1934 81.5005 33.7787 81.5005C34.1211 81.5237 34.4303 81.5005 34.6843 81.4546Z" fill="white"/>
<path d="M48.6437 71.4853C49.4389 72.4021 49.8475 73.697 49.8475 75.393V84.1367H46.9761V76.4243C46.9761 75.3243 46.7221 74.5106 46.2141 73.9835C45.7061 73.4563 45.0103 73.1928 44.1268 73.1928C43.0445 73.1928 42.1941 73.5939 41.5536 74.396C40.913 75.1982 40.6038 76.4129 40.6038 78.0404V84.1367H37.7324V64.9189H40.6038V73.4793C41.0345 72.3562 41.6861 71.5197 42.5586 70.9581C43.4311 70.3966 44.3808 70.1216 45.4079 70.1216C46.7663 70.1216 47.8486 70.5685 48.6437 71.4853Z" fill="white"/>
<path d="M59.9528 70.2822V73.1242C58.4949 73.1242 57.3574 73.2961 56.5623 73.6513C55.7671 74.0066 55.2039 74.5338 54.9057 75.2443C54.5965 75.9547 54.4529 76.9173 54.4529 78.1323V84.1481H51.6367V70.2822H54.4419V73.3992C54.7511 72.6544 55.0603 72.0814 55.3696 71.6803C55.6788 71.2792 56.1868 70.9354 56.8936 70.6833C57.6114 70.4083 58.6275 70.2822 59.9528 70.2822Z" fill="white"/>
<path d="M72.1676 75.3477V83.2318C71.3172 83.5758 70.3675 83.8393 69.3072 84.0342C68.2581 84.2292 67.1758 84.3204 66.0825 84.3204C64.2712 84.3204 62.8908 83.965 61.9189 83.255C60.9581 82.5444 60.4722 81.5357 60.4722 80.2409C60.4722 78.8655 60.9471 77.8 61.9079 77.0322C62.8687 76.2644 64.3265 75.8863 66.2923 75.8863H69.241V75.7029C69.241 74.6601 68.976 73.9382 68.4348 73.5371C67.8937 73.136 66.977 72.9412 65.6959 72.9412C65.0223 72.9412 64.448 72.987 63.9841 73.0787C63.5203 73.1704 63.1448 73.285 62.8466 73.4225C62.5484 73.56 62.0625 73.8006 61.3888 74.1673V71.44C62.0294 70.993 62.703 70.6608 63.4099 70.4659C64.1166 70.2711 64.9781 70.168 66.0051 70.168C70.1135 70.168 72.1676 71.8984 72.1676 75.3477ZM69.241 81.3527V78.2127H65.8726C64.967 78.2127 64.3375 78.3958 63.9952 78.7511C63.6417 79.1177 63.4761 79.5535 63.4761 80.0805C63.4761 80.6188 63.697 81.0433 64.1387 81.3408C64.5805 81.6388 65.21 81.7879 66.0051 81.7879C67.4188 81.7879 68.49 81.6502 69.241 81.3527Z" fill="white"/>
<path d="M95.9335 47.695C94.7742 47.145 92.9299 46.8699 90.4336 46.9272C88.6336 46.9616 86.4912 47.1793 84.0172 47.5804C81.8417 47.9357 79.3789 48.4399 76.7063 49.1045C76.64 49.7462 76.5848 50.3193 76.5517 50.6516C76.4744 51.3506 76.3971 52.0153 76.3087 52.6455C78.4623 53.2185 80.9251 53.4477 83.6972 53.5394C86.7342 53.631 89.6718 53.3102 92.0463 52.7487C93.3826 52.4393 94.542 52.0497 95.4366 51.6142C96.6845 51.0068 97.4245 50.3307 97.4245 49.6431C97.4245 48.818 96.9166 48.1534 95.9335 47.695ZM75.4694 32.4079C75.2375 26.3916 74.376 21.3495 72.1673 20.7421C71.6813 20.6046 71.1291 20.6848 70.4996 21.0171C68.4565 22.1058 67.1423 23.8133 66.3692 25.8875C66.1152 26.5865 65.9054 27.3314 65.7618 28.1106C65.5078 29.4514 65.4195 30.8953 65.4526 32.4079C65.5078 35.4104 66.06 38.6534 66.811 41.8162H66.7999C72.5538 44.4061 73.2275 47.9013 68.9315 47.3971C69.3179 48.0388 69.7487 48.6118 70.2125 49.1274C70.2456 49.1733 70.2898 49.2077 70.323 49.2421C71.9574 48.7837 73.5699 48.3482 75.127 47.9701C75.1822 47.0647 75.2264 46.2855 75.2485 45.7813C75.4694 41.7017 75.6351 36.797 75.4694 32.4079ZM63.023 43.3977C62.7579 43.73 62.5923 44.2342 62.5701 44.9791C63.774 45.1625 65.0219 45.3802 66.3361 45.6437C65.9827 44.8187 65.6624 43.9363 65.3643 42.9737C64.5249 42.756 63.5641 42.6987 63.023 43.3977ZM52.2331 46.4001C50.1458 46.8814 49.1519 47.7065 49.1519 48.543C49.1519 49.2994 49.947 50.0557 51.4821 50.6172C52.951 51.1558 55.0824 51.4882 57.8323 51.4423C58.7932 51.4308 59.8423 51.3621 60.9578 51.236C60.5381 49.5171 60.2951 48.0846 60.2178 46.8699C60.1957 46.5949 60.1847 46.3313 60.1847 46.0792C59.3232 46.0104 58.5171 45.9646 57.7661 45.9531C55.4469 45.9073 53.6025 46.0792 52.2331 46.4001ZM68.2246 46.0448C72.2004 46.847 69.0308 44.6697 67.3632 43.7988C67.6062 44.6124 67.9044 45.3573 68.2246 46.0448ZM63.9396 50.8005C65.4195 50.537 67.0098 50.1703 68.6885 49.7005C68.6664 49.6661 68.6332 49.6317 68.6001 49.5973C68.0038 48.8295 67.4626 47.9815 66.9767 47.0303C65.4305 46.7324 63.9948 46.5147 62.6585 46.3428C62.6917 46.572 62.7358 46.8126 62.791 47.0647C63.0119 48.0732 63.3764 49.2994 63.9396 50.8005ZM68.0369 58.5357C69.8591 60.8506 72.0127 62.008 73.5036 58.0086C73.9453 56.8397 74.2325 55.6938 74.5196 53.9863H74.5306C72.7194 53.2529 71.1733 52.2903 69.8591 51.0068C68.0038 51.5683 66.2367 52.0267 64.5691 52.3934C65.0329 53.4936 66.4134 56.473 68.0369 58.5357ZM74.7736 52.1528C74.851 51.5798 74.9062 50.9839 74.9724 50.3422C74.9945 50.0672 75.0056 49.7921 75.0276 49.5285C73.9453 49.815 72.8188 50.1244 71.6703 50.4567C71.6703 50.4567 71.6703 50.4567 71.6593 50.4567C72.587 51.1787 73.6251 51.7288 74.7736 52.1528ZM102.914 50.239C102.681 51.3506 101.489 52.4049 99.6335 53.2987C98.3081 53.9405 96.6517 54.5135 94.7851 54.9375C91.4717 55.7052 87.4742 56.0719 83.5204 55.7855C80.6489 55.5792 78.1641 55.1781 76.0105 54.5135C76.0105 54.5135 76.0216 54.5249 76.0326 54.5249C75.624 57.0231 75.1381 58.9941 74.5969 60.5183C72.4213 66.5918 69.3069 65.5032 66.6343 62.4205C64.1826 59.6015 62.0953 55.1208 61.4437 52.9893C59.1024 53.3675 56.982 53.5623 55.0935 53.5967C51.4269 53.654 48.6218 53.1269 46.7222 52.3017C44.7343 51.4308 43.7183 50.239 43.7183 49.0358C43.7183 47.6607 45.0435 46.2855 47.7272 45.3916C49.4832 44.8072 51.8466 44.429 54.8063 44.3947C56.4408 44.3832 58.2631 44.4634 60.2731 44.6926C60.4055 43.581 60.7369 42.7788 61.1676 42.2288C62.1505 40.9683 63.7077 40.9453 64.8783 41.163C64.8673 41.163 64.8673 41.1631 64.8563 41.1516C64.282 38.9743 63.52 35.8229 63.2438 32.4079C63.1003 30.6202 63.1003 28.7524 63.3322 26.9188C63.4647 25.8531 63.6856 24.7988 63.9948 23.7789C64.9225 20.7306 66.7337 17.9689 69.9254 16.0093C71.1733 15.2415 72.2446 14.9321 73.1502 15.0123C77.2474 15.3446 78.1089 23.4351 77.8991 32.4079C77.7886 36.8657 77.4131 41.5412 77.0376 45.5864C76.9934 46.0219 76.9272 46.7553 76.8499 47.546C79.3568 46.973 81.7754 46.4918 84.0063 46.1251C87.3857 45.575 90.4451 45.2885 93.062 45.2542C96.696 45.2083 99.4899 45.6552 101.169 46.6292C102.615 47.4658 103.244 48.6576 102.914 50.239Z" fill="white"/>
<path d="M40.5488 91.344V92.4785C40.5488 92.7766 40.4936 93.0061 40.3722 93.1552C40.2506 93.3042 40.1071 93.3841 39.9193 93.3841C39.7537 93.3841 39.6322 93.3382 39.5328 93.235C39.4334 93.1319 39.3892 92.9829 39.3892 92.7879V91.344H38.8591V92.9715C38.8591 93.2923 38.9365 93.5331 39.08 93.7048C39.2235 93.8771 39.4334 93.957 39.6874 93.957C39.8752 93.957 40.0518 93.8998 40.2065 93.7853C40.3611 93.6708 40.4826 93.4872 40.5488 93.2583V93.957C40.5488 94.1519 40.4936 94.301 40.3942 94.3928C40.2948 94.484 40.1512 94.5299 39.9746 94.5299C39.6432 94.5299 39.4445 94.4268 39.4003 94.2092H38.826C38.8371 94.4727 38.9365 94.6789 39.1242 94.8053C39.3119 94.9424 39.588 94.9997 39.9635 94.9997C40.339 94.9997 40.6151 94.9085 40.8028 94.7248C40.9906 94.5418 41.0789 94.2777 41.0789 93.9457V91.3327H40.5488V91.344ZM37.2467 93.43C37.0369 93.43 36.8713 93.3614 36.7497 93.2124C36.6283 93.0634 36.562 92.8684 36.562 92.6395C36.562 92.3986 36.6283 92.2037 36.7497 92.066C36.8713 91.9176 37.0479 91.8484 37.2467 91.8484C37.4565 91.8484 37.6222 91.9176 37.7437 92.066C37.8652 92.215 37.9314 92.41 37.9314 92.6395C37.9314 92.8797 37.8652 93.0747 37.7437 93.2124C37.6222 93.3614 37.4455 93.43 37.2467 93.43ZM37.3682 91.3101C37.1694 91.3101 36.9927 91.356 36.8381 91.4591C36.6835 91.5622 36.5731 91.7113 36.4957 91.9176V90.3359H35.9546V93.923H36.4957V93.3728C36.6172 93.762 36.8933 93.957 37.3019 93.957C37.5228 93.957 37.7216 93.8998 37.8983 93.7966C38.075 93.6822 38.2186 93.5331 38.329 93.3269C38.4394 93.1319 38.4836 92.891 38.4836 92.6276C38.4836 92.3641 38.4394 92.1351 38.34 91.9289C38.2406 91.7339 38.1082 91.5736 37.9425 91.4591C37.7768 91.3673 37.578 91.3101 37.3682 91.3101Z" fill="white"/>
<path d="M69.8146 89.1445C68.5114 89.1445 67.4512 90.2451 67.4512 91.5971C67.4512 92.9492 68.5114 94.0497 69.8146 94.0497C71.1178 94.0497 72.1669 92.9492 72.1669 91.5971C72.1669 90.2451 71.1178 89.1445 69.8146 89.1445ZM69.8146 92.9379C69.0967 92.9379 68.5224 92.3304 68.5224 91.5971C68.5224 90.8639 69.0967 90.2677 69.8146 90.2677C70.5214 90.2677 71.0956 90.8639 71.0956 91.5971C71.0846 92.3304 70.5103 92.9379 69.8146 92.9379Z" fill="white"/>
<path d="M61.1457 89.0869C60.6267 89.0869 60.0966 89.2014 59.6659 89.3731C59.3235 89.1668 58.9922 89.0869 58.5063 89.0869C57.9099 89.0869 57.2914 89.1668 56.6288 89.4076L56.5073 89.4535V93.9682H57.689V90.2667C57.932 90.1868 58.1197 90.1522 58.3517 90.1522C58.937 90.1522 59.1137 90.3472 59.1137 90.9773V93.9569H60.3064V90.8974C60.3064 90.622 60.2954 90.439 60.2512 90.2786C60.4942 90.1981 60.6819 90.1522 60.8917 90.1522C61.455 90.1522 61.6979 90.4157 61.6979 90.9773V93.9569H62.8797V90.8742C62.8797 90.2667 62.7913 89.912 62.5152 89.6026C62.2502 89.2812 61.7532 89.0869 61.1457 89.0869Z" fill="white"/>
<path d="M65.8828 92.9828C65.0987 92.9828 64.6459 92.4784 64.6459 91.5848C64.6459 90.6792 65.0987 90.1522 65.8938 90.1522C66.0595 90.1522 66.2031 90.1755 66.3356 90.2095C66.3356 90.2095 66.5786 90.2786 66.7995 90.4616L67.2964 89.568C67.0203 89.3271 66.7 89.224 66.5896 89.2014C66.2804 89.1096 65.8276 89.0869 65.8276 89.0869C64.4029 89.0869 63.4531 90.1063 63.4531 91.6307C63.4531 93.0972 64.3588 94.0374 65.7613 94.0374C65.7613 94.0374 66.7 94.0833 67.3295 93.4758L66.7442 92.6847C66.435 92.9142 66.2031 92.9828 65.8828 92.9828Z" fill="white"/>
<path d="M50.4548 89.1328C48.765 89.1328 47.981 89.9007 47.981 91.5508V93.9688H49.1957V91.654V91.5395C49.1957 90.7144 49.6485 90.1988 50.3554 90.1988C50.6425 90.1988 50.8744 90.256 51.029 90.2899L51.3051 89.2014C50.8413 89.1328 50.4548 89.1328 50.4548 89.1328Z" fill="white"/>
<path d="M55.8225 91.4021V93.9572H54.1991C53.0837 93.9572 52.5867 93.8774 52.0014 93.4762C51.4934 93.1208 51.2173 92.4448 51.2173 91.5625C51.2173 90.3475 51.9904 89.1212 53.6911 89.1212C55.0826 89.1099 55.8225 89.9123 55.8225 91.4021ZM54.6408 91.5392C54.6408 90.611 54.2985 90.1645 53.6027 90.1645C52.8959 90.1645 52.4432 90.7028 52.4432 91.5166C52.4432 92.4907 52.8959 92.9259 53.9009 92.9259H54.6298V91.5392H54.6408Z" fill="white"/>
<path d="M47.3185 91.4021V93.9572H45.7172C44.6018 93.9572 44.1048 93.8774 43.5195 93.4762C43.0114 93.1208 42.7354 92.4448 42.7354 91.5625C42.7354 90.3475 43.5084 89.1212 45.2092 89.1212C46.5896 89.1099 47.3185 89.9123 47.3185 91.4021ZM46.1037 91.5392C46.1037 90.5997 45.7835 90.1645 45.0766 90.1645C44.3698 90.1645 43.917 90.7028 43.917 91.5166C43.917 92.4907 44.3698 92.9259 45.3859 92.9259H46.1037V91.5392Z" fill="white"/>
</svg>
