<svg width="227" height="220" viewBox="0 0 227 220" fill="none" xmlns="http://www.w3.org/2000/svg">
<circle cx="126" cy="25" r="25" fill="#4C9178"/>
<circle cx="25" cy="181" r="25" fill="#4C9178"/>
<circle cx="202" cy="185" r="25" fill="#4C9178"/>
<circle cx="38" cy="121" r="20" fill="#DB9C24"/>
<circle cx="151" cy="186" r="20" fill="#DB9C24"/>
<circle cx="171" cy="56" r="20" fill="#DB9C24"/>
<circle cx="101.5" cy="171.5" r="17.5" fill="#DB9C24"/>
<circle cx="63.5" cy="147.5" r="13.5" fill="#DB9C24"/>
<circle cx="39" cy="83" r="11" fill="#DB9C24"/>
<path d="M69 59.5C69 64.7467 64.7467 69 59.5 69C54.2533 69 50 64.7467 50 59.5C50 54.2533 54.2533 50 59.5 50C64.7467 50 69 54.2533 69 59.5Z" fill="#DB9C24"/>
<circle cx="81.5" cy="42.5" r="6.5" fill="#DB9C24"/>
<circle cx="191" cy="93" r="11" fill="#DB9C24"/>
<circle cx="200.5" cy="122.5" r="9.5" fill="#DB9C24"/>
<circle cx="203.5" cy="147.5" r="6.5" fill="#DB9C24"/>
<circle cx="80.5" cy="90.5" r="17.5" fill="#DB9C24"/>
<circle cx="117.5" cy="72.5" r="13.5" fill="#DB9C24"/>
<circle cx="119" cy="206" r="11" fill="#DB9C24"/>
<circle cx="84.5" cy="210.5" r="9.5" fill="#DB9C24"/>
<circle cx="59.5" cy="204.5" r="6.5" fill="#DB9C24"/>
<circle cx="157.5" cy="107.5" r="17.5" fill="#DB9C24"/>
<circle cx="151.5" cy="144.5" r="13.5" fill="#DB9C24"/>
</svg>
