<?xml version="1.0" encoding="UTF-8"?>
<svg id="Layer_1" data-name="Layer 1" xmlns="http://www.w3.org/2000/svg" viewBox="0 0 1147.96 160.57">
  <defs>
    <style>
      .cls-1 {
        fill: #010101;
      }

      .cls-1, .cls-2 {
        stroke-width: 0px;
      }

      .cls-2 {
        fill: #050506;
      }
    </style>
  </defs>
  <polygon class="cls-2" points="182.28 105.85 129.39 158.74 52.95 158.74 52.95 105.85 182.28 105.85"/>
  <polygon class="cls-2" points="182.28 0 129.39 52.89 52.95 52.89 52.95 105.85 0 105.85 0 52.89 52.95 0 182.28 0"/>
  <g>
    <path class="cls-1" d="m290.77,160.57c-31.21,0-55.43-24.01-55.43-55.19s24.23-55.19,55.43-55.19c16.63,0,32.64,6.77,43.52,18.67l-16.01,17.03c-7.8-8.62-16.83-12.93-27.1-12.93-17.04,0-30.18,14.16-30.18,32.42s13.34,32.42,30.79,32.42c9.86,0,18.27-3.9,26.28-12.31l15.6,16.41c-11.09,11.69-26.69,18.67-42.91,18.67Z"/>
    <path class="cls-1" d="m397.46,160.57c-31.68,0-56.36-24.26-56.36-55.09s24.68-55.3,56.36-55.3,56.56,24.26,56.56,55.3-24.89,55.09-56.56,55.09Zm0-22.61c17.48,0,31.06-14.39,31.06-32.48s-13.78-32.68-31.06-32.68-30.85,14.18-30.85,32.68,13.58,32.48,30.85,32.48Z"/>
    <path class="cls-1" d="m551.59,20.92v38.7c-8.66-5.93-19.14-9.43-29.83-9.43-30.86,0-54.74,24.25-54.74,55.12s23.55,55.27,53.78,55.27c11.74,0,22.54-4.29,30.97-11.33v11.33h25.92V10.1l-26.1,10.81Zm0,105.72c-6.63,7.21-15.87,11.1-26.56,11.1-18.31,0-32.49-14.18-32.49-32.67s14.18-32.26,32.49-32.26c10.52,0,20.17,3.89,26.56,10.7v43.13Z"/>
    <path class="cls-1" d="m652.36,160.57c-32.09,0-56.77-24.26-56.77-55.3s23.86-54.88,54.3-54.88,52.45,24.26,52.45,56.73v6.78h-80.42c3.5,14.39,15.84,24.67,31.67,24.67,9.67,0,18.51-3.29,24.27-8.84l17.07,15.83c-12.96,10.28-25.92,15.01-42.58,15.01Zm-30.65-65.37h54.92c-3.09-13.57-13.99-23.23-27.36-23.23s-24.27,9.04-27.56,23.23Z"/>
    <path class="cls-1" d="m770.14,160.57c-30.66,0-54.6-24.13-54.6-55.19s23.94-55.19,54.6-55.19c15.96,0,31.29,6.51,42.42,17.42l-12.18,13.43c-8.19-8.81-18.9-13.43-29.82-13.43-20.37,0-35.91,16.58-35.91,37.77s15.75,38.19,36.12,38.19c10.92,0,20.79-4.41,29.4-13.01l11.76,12.59c-11.13,11.12-26.04,17.42-41.79,17.42Z"/>
    <path class="cls-1" d="m827.72,160.57V50.19h18.92v16.24c6.38-10.28,16.45-16.24,28.79-16.24,4.32,0,7.2.62,10.28,1.64v17.06c-3.91-1.44-7.82-2.06-11.72-2.06-12.34,0-22.01,6.78-27.36,19.53v74.21h-18.92Z"/>
    <path class="cls-1" d="m930.94,160.37c-22.83,0-38.46-12.74-38.46-31.66s16.04-31.66,41.96-31.66c10.28,0,20.36,2.26,29,6.17v-13.98c0-15.21-8.85-23.02-25.92-23.02-9.87,0-19.75,2.67-32.5,8.84l-6.99-14.18c15.43-7.4,28.39-10.69,41.75-10.69,26.94,0,42.17,13.36,42.17,37v73.18h-18.51v-11.31c-9.05,7.61-19.95,11.31-32.5,11.31Zm-20.36-32.07c0,10.69,9.87,17.88,24.27,17.88,11.52,0,20.98-3.29,28.59-10.69v-18.09c-8.02-4.93-16.87-7.19-27.77-7.19-15.43,0-25.09,6.99-25.09,18.09Z"/>
    <path class="cls-1" d="m1018.7,160.37v-94.14h-24.27v-16.03h24.27v-7.2c0-21.17,12.13-32.89,34.35-32.89,5.55,0,10.28.41,14.6,1.85v16.44c-4.94-1.44-8.23-2.06-12.96-2.06-11.72,0-17.28,5.34-17.28,17.06v6.79h30.23v16.03h-30.23v94.14h-18.72Z"/>
    <path class="cls-1" d="m1117.09,66.22v62.92c0,10.87,4.36,15,15.46,15,5.75,0,9.88-.64,15-2.44v15.98c-5.35,1.86-12.96,2.67-19.12,2.67-19.53,0-30.05-9.24-30.05-26.68v-67.45h-22.2v-16.04h22.2V17.83l18.72-7.73v40.07h30.86v16.04h-30.86Z"/>
  </g>
</svg>