<svg width="74" height="17" viewBox="0 0 74 17" fill="none" xmlns="http://www.w3.org/2000/svg">
<path d="M0.497159 5.59304V3.81818H8.85938V5.59304H5.74219V14H3.61435V5.59304H0.497159ZM12.5694 14.1491C11.7839 14.1491 11.1078 13.9901 10.541 13.6719C9.97757 13.3504 9.54338 12.8963 9.23846 12.3097C8.93353 11.7197 8.78107 11.022 8.78107 10.2166C8.78107 9.43111 8.93353 8.74171 9.23846 8.14844C9.54338 7.55516 9.9726 7.0928 10.5261 6.76136C11.0829 6.42992 11.7359 6.2642 12.4849 6.2642C12.9887 6.2642 13.4577 6.34541 13.8919 6.50781C14.3294 6.6669 14.7105 6.9072 15.0353 7.22869C15.3635 7.55019 15.6187 7.95455 15.801 8.44176C15.9833 8.92566 16.0744 9.49242 16.0744 10.142V10.7237H9.62624V9.41122H14.0808C14.0808 9.1063 14.0145 8.83617 13.8819 8.60085C13.7493 8.36553 13.5654 8.18158 13.3301 8.04901C13.0981 7.91312 12.8279 7.84517 12.5197 7.84517C12.1982 7.84517 11.9132 7.91974 11.6646 8.06889C11.4193 8.21473 11.2271 8.41193 11.0879 8.66051C10.9487 8.90578 10.8774 9.17921 10.8741 9.48082V10.7287C10.8741 11.1065 10.9437 11.433 11.0829 11.7081C11.2254 11.9832 11.426 12.1953 11.6845 12.3445C11.943 12.4936 12.2496 12.5682 12.6042 12.5682C12.8395 12.5682 13.055 12.535 13.2505 12.4688C13.4461 12.4025 13.6135 12.303 13.7527 12.1705C13.8919 12.0379 13.9979 11.8755 14.0708 11.6832L16.0297 11.8125C15.9302 12.2831 15.7264 12.6941 15.4181 13.0455C15.1132 13.3935 14.7188 13.6652 14.2349 13.8608C13.7543 14.053 13.1992 14.1491 12.5694 14.1491ZM19.5744 9.58523V14H17.4565V6.36364H19.475V7.71094H19.5645C19.7335 7.26681 20.0169 6.91548 20.4146 6.65696C20.8123 6.39512 21.2946 6.2642 21.8613 6.2642C22.3916 6.2642 22.854 6.38021 23.2484 6.61222C23.6428 6.84422 23.9494 7.17566 24.1681 7.60653C24.3869 8.03409 24.4963 8.54451 24.4963 9.13778V14H22.3784V9.51562C22.3817 9.0483 22.2624 8.68371 22.0204 8.42188C21.7785 8.15672 21.4454 8.02415 21.0211 8.02415C20.7361 8.02415 20.4842 8.08546 20.2654 8.2081C20.05 8.33073 19.881 8.50971 19.7583 8.74503C19.639 8.97704 19.5777 9.2571 19.5744 9.58523ZM30.2273 6.36364V7.95455H25.6286V6.36364H30.2273ZM26.6726 4.53409H28.7905V11.6534C28.7905 11.849 28.8203 12.0014 28.88 12.1108C28.9396 12.2169 29.0225 12.2914 29.1286 12.3345C29.2379 12.3776 29.3639 12.3991 29.5064 12.3991C29.6058 12.3991 29.7053 12.3909 29.8047 12.3743C29.9041 12.3544 29.9804 12.3395 30.0334 12.3295L30.3665 13.9055C30.2604 13.9387 30.1113 13.9768 29.919 14.0199C29.7268 14.0663 29.4931 14.0945 29.218 14.1044C28.7076 14.1243 28.2602 14.0563 27.8757 13.9006C27.4946 13.7448 27.1979 13.5028 26.9858 13.1747C26.7737 12.8466 26.6693 12.4323 26.6726 11.9318V4.53409ZM33.1133 14L31.0352 6.36364H33.1779L34.3612 11.4943H34.4308L35.6637 6.36364H37.7667L39.0195 11.4645H39.0842L40.2475 6.36364H42.3853L40.3121 14H38.07L36.7575 9.19744H36.663L35.3505 14H33.1133ZM46.8038 14.1491C46.0183 14.1491 45.3422 13.9901 44.7754 13.6719C44.2119 13.3504 43.7778 12.8963 43.4728 12.3097C43.1679 11.7197 43.0154 11.022 43.0154 10.2166C43.0154 9.43111 43.1679 8.74171 43.4728 8.14844C43.7778 7.55516 44.207 7.0928 44.7605 6.76136C45.3173 6.42992 45.9702 6.2642 46.7193 6.2642C47.2231 6.2642 47.6921 6.34541 48.1262 6.50781C48.5637 6.6669 48.9449 6.9072 49.2697 7.22869C49.5978 7.55019 49.853 7.95455 50.0353 8.44176C50.2176 8.92566 50.3088 9.49242 50.3088 10.142V10.7237H43.8606V9.41122H48.3152C48.3152 9.1063 48.2489 8.83617 48.1163 8.60085C47.9837 8.36553 47.7998 8.18158 47.5645 8.04901C47.3324 7.91312 47.0623 7.84517 46.7541 7.84517C46.4326 7.84517 46.1475 7.91974 45.899 8.06889C45.6537 8.21473 45.4615 8.41193 45.3223 8.66051C45.1831 8.90578 45.1118 9.17921 45.1085 9.48082V10.7287C45.1085 11.1065 45.1781 11.433 45.3173 11.7081C45.4598 11.9832 45.6603 12.1953 45.9189 12.3445C46.1774 12.4936 46.484 12.5682 46.8386 12.5682C47.0739 12.5682 47.2894 12.535 47.4849 12.4688C47.6805 12.4025 47.8478 12.303 47.987 12.1705C48.1262 12.0379 48.2323 11.8755 48.3052 11.6832L50.264 11.8125C50.1646 12.2831 49.9608 12.6941 49.6525 13.0455C49.3476 13.3935 48.9532 13.6652 48.4693 13.8608C47.9887 14.053 47.4335 14.1491 46.8038 14.1491ZM53.8088 9.58523V14H51.6909V6.36364H53.7093V7.71094H53.7988C53.9679 7.26681 54.2512 6.91548 54.649 6.65696C55.0467 6.39512 55.5289 6.2642 56.0957 6.2642C56.626 6.2642 57.0884 6.38021 57.4828 6.61222C57.8772 6.84422 58.1838 7.17566 58.4025 7.60653C58.6213 8.03409 58.7306 8.54451 58.7306 9.13778V14H56.6127V9.51562C56.6161 9.0483 56.4967 8.68371 56.2548 8.42188C56.0128 8.15672 55.6797 8.02415 55.2555 8.02415C54.9705 8.02415 54.7186 8.08546 54.4998 8.2081C54.2844 8.33073 54.1154 8.50971 53.9927 8.74503C53.8734 8.97704 53.8121 9.2571 53.8088 9.58523ZM64.4616 6.36364V7.95455H59.8629V6.36364H64.4616ZM60.907 4.53409H63.0249V11.6534C63.0249 11.849 63.0547 12.0014 63.1143 12.1108C63.174 12.2169 63.2569 12.2914 63.3629 12.3345C63.4723 12.3776 63.5982 12.3991 63.7408 12.3991C63.8402 12.3991 63.9396 12.3909 64.0391 12.3743C64.1385 12.3544 64.2147 12.3395 64.2678 12.3295L64.6009 13.9055C64.4948 13.9387 64.3456 13.9768 64.1534 14.0199C63.9612 14.0663 63.7275 14.0945 63.4524 14.1044C62.942 14.1243 62.4946 14.0563 62.1101 13.9006C61.7289 13.7448 61.4323 13.5028 61.2202 13.1747C61.008 12.8466 60.9036 12.4323 60.907 11.9318V4.53409ZM67.1488 16.8636C66.8803 16.8636 66.6284 16.8421 66.3931 16.799C66.1611 16.7592 65.9689 16.7079 65.8164 16.6449L66.2937 15.0639C66.5423 15.1402 66.766 15.1816 66.9648 15.1882C67.167 15.1948 67.341 15.1484 67.4869 15.049C67.636 14.9496 67.757 14.7805 67.8498 14.5419L67.9741 14.2188L65.2347 6.36364H67.462L69.043 11.9716H69.1225L70.7184 6.36364H72.9606L69.9925 14.8253C69.85 15.2363 69.6561 15.5942 69.4109 15.8991C69.1689 16.2074 68.8623 16.4444 68.4911 16.6101C68.1199 16.7791 67.6725 16.8636 67.1488 16.8636Z" fill="black"/>
</svg>
